<?xml version="1.0" encoding="UTF-8" standalone="no"?>
<svg
   xmlns:dc="http://purl.org/dc/elements/1.1/"
   xmlns:cc="http://creativecommons.org/ns#"
   xmlns:rdf="http://www.w3.org/1999/02/22-rdf-syntax-ns#"
   xmlns:svg="http://www.w3.org/2000/svg"
   xmlns="http://www.w3.org/2000/svg"
   width="50"
   height="50"
   viewBox="0 0 13.229166 13.229167"
   version="1.1"
   id="svg8">
  <defs
     id="defs2">
    <rect
       x="93.927086"
       y="104.13244"
       width="61.988094"
       height="28.726191"
       id="rect14" />
    <rect
       x="93.927086"
       y="104.13244"
       width="61.988094"
       height="28.726191"
       id="rect14-9" />
    <rect
       x="93.927086"
       y="104.13244"
       width="61.988094"
       height="28.726191"
       id="rect24" />
  </defs>
  <metadata
     id="metadata5">
    <rdf:RDF>
      <cc:Work
         rdf:about="">
        <dc:format>image/svg+xml</dc:format>
        <dc:type
           rdf:resource="http://purl.org/dc/dcmitype/StillImage" />
        <dc:title></dc:title>
      </cc:Work>
    </rdf:RDF>
  </metadata>
  <g
     id="layer1">
    <circle
       style="fill:#1c1c1b;fill-opacity:1;fill-rule:evenodd;stroke:none;stroke-width:0.0840051"
       id="path10"
       cx="6.5717278"
       cy="6.7134666"
       r="6.3499999" />
    <text
       xml:space="preserve"
       id="text12"
       style="font-style:normal;font-weight:normal;font-size:10.5833px;line-height:1.25;font-family:sans-serif;white-space:pre;shape-inside:url(#rect14);fill:#c9c9c5;fill-opacity:1;stroke:none;"
       transform="matrix(1.617879,0,0,1.0697825,-147.91544,-111.20926)"><tspan
         x="93.927734"
         y="113.78828"><tspan
           style="font-style:normal;font-variant:normal;font-weight:normal;font-stretch:normal;font-family:Ebrima;-inkscape-font-specification:Ebrima;fill:#c9c9c5;fill-opacity:1">!</tspan></tspan></text>
  </g>
  <path
     style="opacity:0.751613;fill:#c9c9c5;fill-opacity:1;stroke-width:0.122337"
     d="M 22.380904,49.187693 C 19.764076,48.914157 16.618234,47.99334 14.263172,46.811559 7.5351177,43.435388 2.9420016,37.472237 1.3749054,30.078978 0.98615426,28.244925 0.83686876,24.503131 1.0753135,22.569802 1.7446847,17.142486 4.1290028,12.273197 8.0067596,8.4143014 11.69595,4.7430551 16.311393,2.4454434 21.527142,1.6837263 c 1.696725,-0.2477927 4.995854,-0.2482009 6.697123,-8.287e-4 6.693812,0.97331 12.734139,4.7845173 16.471835,10.3930744 5.667006,8.503559 5.388407,19.399751 -0.706187,27.619529 -0.911706,1.229619 -2.890062,3.282957 -4.12795,4.284407 -4.861387,3.932854 -11.307224,5.853135 -17.481059,5.207785 z m 4.151608,-9.430891 c 0.840082,-0.411013 1.3299,-0.911581 1.461059,-1.493118 0.214373,-0.950507 -0.303529,-1.798418 -1.437274,-2.353109 -0.576468,-0.282039 -0.8909,-0.347076 -1.860021,-0.384729 -1.378819,-0.05357 -2.301487,0.222178 -3.071679,0.918 -1.339244,1.209925 -0.642644,2.907827 1.477223,3.600604 0.168213,0.05497 0.857047,0.08705 1.530744,0.07129 1.047367,-0.02451 1.322742,-0.07653 1.899948,-0.358934 z m 0.116706,-9.238556 c -3.67e-4,-0.810372 0.438427,-17.112413 0.526856,-19.57389 l 0.04505,-1.2539521 h -2.805066 -2.805064 l 0.0744,1.6821311 c 0.04092,0.925172 0.156249,5.122854 0.256282,9.328182 0.100034,4.205328 0.214853,8.320433 0.255152,9.144677 l 0.07327,1.498626 h 2.189744 2.189744 z"
     id="path60"
     transform="scale(0.26458333)" />
  <path
     style="opacity:0.751613;fill:#1c1c1b;fill-opacity:1;stroke-width:0.122337"
     d="m 22.319837,29.845394 c -0.03965,-0.756959 -0.154849,-4.844538 -0.255987,-9.083508 -0.101138,-4.238971 -0.217393,-8.436653 -0.258344,-9.328183 l -0.07446,-1.6209623 h 2.677683 2.677682 l -0.0383,1.1927843 c -0.103707,3.22948 -0.52086,18.826264 -0.52086,19.474229 v 0.741929 h -2.067658 -2.067657 z"
     id="path62"
     transform="scale(0.26458333)" />
  <path
     style="opacity:0.751613;fill:#1c1c1b;fill-opacity:1;stroke-width:0.122337"
     d="m 22.897818,39.80348 c -1.335174,-0.461402 -2.065824,-1.457096 -1.756656,-2.393884 0.346166,-1.048892 1.484783,-1.690691 3.122857,-1.760245 0.915106,-0.03886 1.222521,-9.79e-4 1.820474,0.224305 1.848834,0.696564 2.382043,2.135313 1.190359,3.211928 -0.995431,0.899312 -2.932641,1.217042 -4.377034,0.717896 z"
     id="path64"
     transform="scale(0.26458333)" />
</svg>
